<svg id="Flat" height="512" viewBox="0 0 512 512" width="512" xmlns="http://www.w3.org/2000/svg"><path d="m104 312h256a32 32 0 0 1 32 32v144a0 0 0 0 1 0 0h-320a0 0 0 0 1 0 0v-144a32 32 0 0 1 32-32z" fill="#6a7073"/><path d="m200 488-64-119 40-57h40v48z" fill="#e9eef2"/><path d="m264 488 64-119-40-57h-40v48z" fill="#e9eef2"/><path d="m344 312h-224l-16-48h256z" fill="#596063"/><ellipse cx="128" cy="200.5" fill="#f0c6a4" rx="32" ry="32.5"/><ellipse cx="336" cy="200.5" fill="#f0c6a4" rx="32" ry="32.5"/><path d="m336 191v16c0 .33 0 .67-.01 1a103.995 103.995 0 0 1 -207.98 0c-.01-.33-.01-.67-.01-1v-16a104 104 0 1 1 208 0z" fill="#f7cca9"/><path d="m336 136h-208l16-112s65.639 10.143 88 10.143 88-10.143 88-10.143z" fill="#6a7073"/><path d="m368 168h-272l32-32h208z" fill="#4f5659"/><path d="m264 488h-64l16-128h32z" fill="#6a7073"/><path d="m216 312h32v48h-32z" fill="#4f5659"/><path d="m240 312-64 48v-48z" fill="#dadcde"/><path d="m224 312 64 48v-48z" fill="#dadcde"/><path d="m392 384a8 8 0 0 1 -8-8v-32a8 8 0 0 1 16 0v32a8 8 0 0 1 -8 8z" fill="#9aa3a8"/><path d="m376 376h32a0 0 0 0 1 0 0v96a16 16 0 0 1 -16 16 16 16 0 0 1 -16-16v-96a0 0 0 0 1 0 0z" fill="#4f5659"/><path d="m376 424h32a16 16 0 0 1 16 16v32a16 16 0 0 1 -16 16h-32a0 0 0 0 1 0 0v-64a0 0 0 0 1 0 0z" fill="#f7cca9"/><path d="m192 160a40.069 40.069 0 0 0 -39.2 32h-24.8v15c0 .33 0 .67.01 1h24.79a40 40 0 1 0 39.2-48zm0 64a24 24 0 1 1 24-24 24.032 24.032 0 0 1 -24 24z" fill="#4f5659"/><circle cx="192" cy="200" fill="#e9eef2" r="24"/><path d="m311.2 192a40 40 0 1 0 0 16h24.79c.01-.33.01-.67.01-1v-15zm-39.2 32a24 24 0 1 1 24-24 24.032 24.032 0 0 1 -24 24z" fill="#4f5659"/><circle cx="272" cy="200" fill="#e9eef2" r="24"/><path d="m248 272h-32a8 8 0 0 1 0-16h32a8 8 0 0 1 0 16z" fill="#452d23"/><path d="m392 240a56 56 0 1 0 56 56 56.062 56.062 0 0 0 -56-56zm0 96a40 40 0 1 1 40-40 40.04 40.04 0 0 1 -40 40z" fill="#4f5659"/><circle cx="392" cy="296" fill="#e9eef2" r="40"/></svg>