<svg id="Flat" height="512" viewBox="0 0 512 512" width="512" xmlns="http://www.w3.org/2000/svg"><rect fill="#f7cc38" height="272" rx="32" width="336" x="152" y="72"/><path d="m152 360a32 32 0 0 0 32 32h272a32 32 0 0 0 32-32v-208a32 32 0 0 0 -32-32h-160v-64a32 32 0 0 0 -32-32h-80a32 32 0 0 0 -32 32z" fill="#fbe36a"/><path d="m296 216v240a32 32 0 0 1 -32 32h-208a32 32 0 0 1 -32-32v-288a32 32 0 0 1 32-32h160z" fill="#e9eef2"/><g fill="#c3c6c7"><path d="m296 216h-48a32 32 0 0 1 -32-32v-48z"/><path d="m248 272h-112a8 8 0 0 1 0-16h112a8 8 0 0 1 0 16z"/><path d="m184 320h-112a8 8 0 0 1 0-16h112a8 8 0 0 1 0 16z"/><path d="m248 416h-32a8 8 0 0 1 0-16h32a8 8 0 0 1 0 16z"/><path d="m104 272h-32a8 8 0 0 1 0-16h32a8 8 0 0 1 0 16z"/><path d="m152 368h-80a8 8 0 0 1 0-16h80a8 8 0 0 1 0 16z"/><path d="m120 224h-48a8 8 0 0 1 0-16h48a8 8 0 0 1 0 16z"/><circle cx="216" cy="312" r="8"/><path d="m232 368h-48a8 8 0 0 1 0-16h48a8 8 0 0 1 0 16z"/><path d="m184 416h-112a8 8 0 0 1 0-16h112a8 8 0 0 1 0 16z"/></g><path d="m424 280-56-48v24c-48 0-104 36.654-104 72 0 0 56-24 104-24v24z" fill="#f79539"/></svg>