<svg height="496pt" viewBox="0 0 496 496" width="496pt" xmlns="http://www.w3.org/2000/svg"><path d="m152 440h192v48h-192zm0 0" fill="#aab2bd"/><path d="m88 120h-48c-17.671875 0-32 14.328125-32 32v256c0 17.671875 14.328125 32 32 32h416c17.671875 0 32-14.328125 32-32v-256c0-17.671875-14.328125-32-32-32zm0 0" fill="#69d6f4"/><path d="m456 120h-128l-184 256h344v-224c0-17.671875-14.328125-32-32-32zm0 0" fill="#4fc1e9"/><path d="m8 408c0 17.671875 14.328125 32 32 32h416c17.671875 0 32-14.328125 32-32v-32h-480zm0 0" fill="#838f9b"/><path d="m88 160v-86.703125c0-15.105469 9.664062-28.519531 24-33.296875 15.113281-20.144531 38.816406-32 64-32 48.601562 0 88 39.398438 88 88v64zm0 0" fill="#b27946"/><path d="m144 213.953125v26.046875l-69.304688 19.992188c-20.542968 5.929687-34.695312 24.734374-34.695312 46.121093v37.886719h272v-37.886719c0-21.386719-14.152344-40.191406-34.695312-46.121093l-69.304688-19.992188v-26.046875zm0 0" fill="#e6e9ed"/><path d="m144 200h64v72h-64zm0 0" fill="#f0d0b4"/><path d="m232 104v64c0 30.929688-25.070312 56-56 56s-56-25.070312-56-56v-64zm0 0" fill="#f0d0b4"/><path d="m231.601562 246.808594-23.601562-6.808594-32 32 40 32zm0 0" fill="#ccd1d9"/><path d="m136 304 40-32-32-32-23.601562 6.808594zm0 0" fill="#ccd1d9"/><path d="m120 136h-8c-13.257812 0-24 10.742188-24 24s10.742188 24 24 24h128c13.257812 0 24-10.742188 24-24s-10.742188-24-24-24zm0 0" fill="#f0d0b4"/><path d="m192 344-8-32 14.609375-21.910156-22.609375-18.089844-22.609375 18.089844 14.609375 21.910156-8 32zm0 0" fill="#ff826e"/><path d="m296.511719 80h-16.511719c-8.839844 0-16 7.160156-16 16v96c0 8.839844 7.160156 16 16 16h56v32l40-32h64c8.839844 0 16-7.160156 16-16v-96c0-8.839844-7.160156-16-16-16zm0 0" fill="#e6e9ed"/><path d="m392 144c0-9.382812 3.976562-18.3125 10.9375-24.609375 12.925781-11.703125 21.0625-28.582031 21.0625-47.390625 0-37.753906-32.6875-67.871094-71.304688-63.59375-28.136718 3.113281-51.542968 25.363281-55.894531 53.328125-3.554687 22.808594 4.984375 43.761719 20.152344 57.554687 6.984375 6.351563 11.046875 15.269532 11.046875 24.710938zm0 0" fill="#fcd770"/><path d="m360 176c17.671875 0 32-14.328125 32-32h-64c0 17.671875 14.328125 32 32 32zm0 0" fill="#cf9e76"/><path d="m376 72c0 8.835938-7.164062 16-16 16s-16-7.164062-16-16 7.164062-16 16-16 16 7.164062 16 16zm0 0" fill="#ffeaa7"/><path d="m152 440h192v16h-192zm0 0" fill="#969faa"/><path d="m464 112.808594v-16.808594c0-13.230469-10.769531-24-24-24h-8c0-20.449219-8.742188-40.007812-23.992188-53.65625-15.230468-13.640625-35.710937-20.144531-56.191406-17.886719-31.59375 3.496094-58.046875 28.75-62.921875 60.054688-.597656 3.847656-.773437 7.679687-.765625 11.496093h-8.128906c-3.785156 0-7.320312.960938-10.511719 2.527344-9.785156-42.625-47.945312-74.535156-93.488281-74.535156-26.742188 0-52.328125 12.398438-68.921875 33.289062-16.292969 6.511719-27.078125 22.277344-27.078125 40.007813v38.703125h-40c-22.054688 0-40 17.945312-40 40v256c0 22.054688 17.945312 40 40 40h104v32h-32v16h272v-16h-32v-32h104c22.054688 0 40-17.945312 40-40v-256c0-19.3125-13.769531-35.472656-32-39.191406zm-159.296875-49.839844c3.777344-24.296875 24.335937-43.898438 48.863281-46.609375 2.1875-.238281 4.355469-.359375 6.503906-.359375 13.824219 0 26.867188 4.953125 37.273438 14.273438 11.855469 10.605468 18.65625 25.824218 18.65625 41.726562 0 15.742188-6.71875 30.855469-18.433594 41.457031-6.613281 5.984375-11.039062 13.933594-12.75 22.542969h-16.816406v-41.472656c9.289062-3.3125 16-12.113282 16-22.527344 0-13.230469-10.769531-24-24-24s-24 10.769531-24 24c0 10.414062 6.710938 19.214844 16 22.527344v41.472656h-16.824219c-1.726562-8.609375-6.183593-16.585938-12.839843-22.632812-13.976563-12.703126-20.566407-31.535157-17.632813-50.398438zm47.296875 9.03125c0-4.40625 3.59375-8 8-8s8 3.59375 8 8-3.59375 8-8 8-8-3.59375-8-8zm30.527344 80c-3.3125 9.289062-12.113282 16-22.527344 16s-19.214844-6.710938-22.527344-16zm-102.527344-64h9.871094c3.234375 14.152344 10.65625 27.175781 21.695312 37.207031 3.273438 2.976563 5.570313 6.738281 6.953125 10.792969h-14.519531v16h16.808594c3.71875 18.230469 19.871094 32 39.191406 32 19.3125 0 35.472656-13.769531 39.191406-32h16.808594v-16h-14.542969c1.367188-4.039062 3.621094-7.761719 6.847657-10.679688 11.023437-9.976562 18.558593-23.074218 21.832031-37.320312h9.863281c4.40625 0 8 3.59375 8 8v96c0 4.40625-3.59375 8-8 8h-66.808594l-29.191406 23.351562v-23.351562h-64c-4.40625 0-8-3.59375-8-8v-96c0-4.40625 3.59375-8 8-8zm-40 80v-24c8.824219 0 16 7.175781 16 16s-7.175781 16-16 16h-.550781c.328125-2.625.550781-5.289062.550781-8zm-125.472656-120.40625 2.367187-.792969 1.503907-2c13.53125-18.03125 35.058593-28.800781 57.601562-28.800781 44.113281 0 80 35.886719 80 80v36.449219c-4.726562-2.753907-10.144531-4.449219-16-4.449219v-32h-128v32c-5.855469 0-11.273438 1.695312-16 4.449219v-59.152344c0-11.679687 7.449219-22.007813 18.527344-25.703125zm27.152344 201.398438 22.34375 22.34375-23.632813 18.902343-10.789063-37.757812zm46.199218 42.761718-8.160156 12.246094h-7.429688l-8.167968-12.246094 11.878906-9.507812zm-73.65625-34.832031 17.386719 60.839844 19.964844-15.976563 7.800781 11.703125-5.621094 22.511719h-105.753906v-29.886719c0-17.722656 11.886719-33.519531 28.910156-38.433593zm60.023438 63.078125h3.507812l4 16h-11.507812zm24 16-5.621094-22.503906 7.800781-11.703125 19.964844 15.976562 17.386719-60.839843 37.3125 10.757812c17.023437 4.90625 28.910156 20.703125 28.910156 38.425781v29.886719zm13.363281-45.761719-23.632813-18.902343 22.34375-22.34375 12.078126 3.488281zm-11.609375-53.550781-24 24-24-24v-9.398438c7.414062 3.015626 15.511719 4.710938 24 4.710938s16.585938-1.695312 24-4.710938zm-24-20.6875c-26.472656 0-48-21.527344-48-48v-56h96v56c0 26.472656-21.527344 48-48 48zm-63.449219-40h-.550781c-8.824219 0-16-7.175781-16-16s7.175781-16 16-16v24c0 2.710938.222656 5.375.550781 8zm-72.550781-48h40v32c0 17.648438 14.351562 32 32 32h4.710938c4.144531 10.199219 10.832031 19.089844 19.289062 25.878906v16.105469l-63.519531 18.328125c-23.832031 6.863281-40.480469 28.992188-40.480469 53.800781v45.886719h288v-45.886719c0-24.808593-16.648438-46.929687-40.480469-53.808593l-63.519531-18.320313v-16.105469c8.457031-6.789062 15.144531-15.679687 19.289062-25.878906h4.710938c5.855469 0 11.273438-1.695312 16-4.449219v4.449219c0 13.230469 10.769531 24 24 24h48v40.648438l50.808594-40.648438h61.191406c13.230469 0 24-10.769531 24-24v-62.527344c9.289062 3.3125 16 12.113282 16 22.527344v216h-464v-216c0-13.230469 10.769531-24 24-24zm296 352h-176v-32h176zm120-48h-416c-13.230469 0-24-10.769531-24-24v-24h464v24c0 13.230469-10.769531 24-24 24zm0 0"/><path d="m192 400h16v16h-16zm0 0"/><path d="m224 400h48v16h-48zm0 0"/><path d="m288 400h16v16h-16zm0 0"/><path d="m448 336h16v16h-16zm0 0"/><path d="m336 336h96v16h-96zm0 0"/><path d="m336 304h16v16h-16zm0 0"/><path d="m368 304h96v16h-96zm0 0"/><path d="m336 272h128v16h-128zm0 0"/></svg>