<svg xmlns="http://www.w3.org/2000/svg" height="512pt" version="1.1" viewBox="0 0 512 512" width="512pt">
<g id="surface1">
<path d="M 392 107 L 392 467 C 392 491.898438 371.902344 512 347 512 L 46 512 C 21.097656 512 0 491.898438 0 467 L 0 107 C 0 82.101562 21.097656 62 46 62 L 347 62 C 371.902344 62 392 82.101562 392 107 Z M 392 107 " style=" stroke:none;fill-rule:nonzero;fill:rgb(29.019608%,41.176471%,43.529412%);fill-opacity:1;" />
<path d="M 392 107 L 392 467 C 392 491.898438 371.902344 512 347 512 L 196 512 L 196 62 L 347 62 C 371.902344 62 392 82.101562 392 107 Z M 392 107 " style=" stroke:none;fill-rule:nonzero;fill:rgb(24.313725%,34.901961%,34.901961%);fill-opacity:1;" />
<path d="M 482 61 L 482 106 C 482 114.402344 475.402344 121 467 121 C 458.597656 121 452 114.402344 452 106 L 452 61 C 452 52.597656 458.597656 46 467 46 C 475.402344 46 482 52.597656 482 61 Z M 482 61 " style=" stroke:none;fill-rule:nonzero;fill:rgb(100%,47.058824%,8.627451%);fill-opacity:1;" />
<path d="M 467 121 L 467 46 C 475.402344 46 482 52.597656 482 61 L 482 106 C 482 114.402344 475.402344 121 467 121 Z M 467 121 " style=" stroke:none;fill-rule:nonzero;fill:rgb(100%,29.411765%,0%);fill-opacity:1;" />
<path d="M 512 106 L 512 181 L 467 211 L 422 181 L 422 106 C 422 97.597656 428.597656 91 437 91 L 497 91 C 505.402344 91 512 97.597656 512 106 Z M 512 106 " style=" stroke:none;fill-rule:nonzero;fill:rgb(99.215686%,74.901961%,0%);fill-opacity:1;" />
<path d="M 512 106 L 512 181 L 467 211 L 467 91 L 497 91 C 505.402344 91 512 97.597656 512 106 Z M 512 106 " style=" stroke:none;fill-rule:nonzero;fill:rgb(100%,62.352941%,0%);fill-opacity:1;" />
<path d="M 482 466 L 482 497 C 482 505.398438 475.402344 512 467 512 C 458.597656 512 452 505.398438 452 497 L 452 466 C 452 457.597656 458.597656 451 467 451 C 475.402344 451 482 457.597656 482 466 Z M 482 466 " style=" stroke:none;fill-rule:nonzero;fill:rgb(100%,47.058824%,8.627451%);fill-opacity:1;" />
<path d="M 482 466 L 482 497 C 482 505.398438 475.402344 512 467 512 L 467 451 C 475.402344 451 482 457.597656 482 466 Z M 482 466 " style=" stroke:none;fill-rule:nonzero;fill:rgb(100%,29.411765%,0%);fill-opacity:1;" />
<path d="M 467 331 L 422 361 L 422 406 C 422 408.398438 422.601562 410.5 423.5 412.597656 L 453.5 472.597656 C 456.199219 477.699219 461.300781 482 467 482 C 472.699219 482 477.800781 477.699219 480.5 472.597656 L 510.5 412.597656 C 511.398438 410.5 512 408.398438 512 406 L 512 361 Z M 467 331 " style=" stroke:none;fill-rule:nonzero;fill:rgb(99.215686%,74.901961%,0%);fill-opacity:1;" />
<path d="M 467 331 L 512 361 L 512 406 C 512 408.398438 511.398438 410.5 510.5 412.597656 L 480.5 472.597656 C 477.800781 477.699219 472.699219 482 467 482 Z M 467 331 " style=" stroke:none;fill-rule:nonzero;fill:rgb(100%,62.352941%,0%);fill-opacity:1;" />
<path d="M 422 181 L 512 181 L 512 361 L 422 361 Z M 422 181 " style=" stroke:none;fill-rule:nonzero;fill:rgb(100%,47.058824%,8.627451%);fill-opacity:1;" />
<path d="M 467 181 L 512 181 L 512 361 L 467 361 Z M 467 181 " style=" stroke:none;fill-rule:nonzero;fill:rgb(100%,29.411765%,0%);fill-opacity:1;" />
<path d="M 362 107 L 362 467 C 362 475.398438 355.402344 482 347 482 L 46 482 C 37.597656 482 30 475.398438 30 467 L 30 107 C 30 98.597656 37.597656 92 46 92 L 347 92 C 355.402344 92 362 98.597656 362 107 Z M 362 107 " style=" stroke:none;fill-rule:nonzero;fill:rgb(92.54902%,92.54902%,94.509804%);fill-opacity:1;" />
<path d="M 362 107 L 362 467 C 362 475.398438 355.402344 482 347 482 L 196 482 L 196 92 L 347 92 C 355.402344 92 362 98.597656 362 107 Z M 362 107 " style=" stroke:none;fill-rule:nonzero;fill:rgb(88.627451%,88.627451%,90.588235%);fill-opacity:1;" />
<path d="M 106 242 C 102.160156 242 98.324219 240.535156 95.394531 237.605469 L 65.394531 207.605469 C 59.535156 201.746094 59.535156 192.253906 65.394531 186.394531 C 71.253906 180.535156 80.746094 180.535156 86.605469 186.394531 L 106 205.789062 L 155.394531 156.394531 C 161.253906 150.535156 170.746094 150.535156 176.605469 156.394531 C 182.464844 162.253906 182.464844 171.746094 176.605469 177.605469 L 116.605469 237.605469 C 113.675781 240.535156 109.839844 242 106 242 Z M 106 242 " style=" stroke:none;fill-rule:nonzero;fill:rgb(0%,93.333333%,54.117647%);fill-opacity:1;" />
<path d="M 106 347 C 102.160156 347 98.324219 345.535156 95.394531 342.605469 L 65.394531 312.605469 C 59.535156 306.746094 59.535156 297.253906 65.394531 291.394531 C 71.253906 285.535156 80.746094 285.535156 86.605469 291.394531 L 106 310.789062 L 155.394531 261.394531 C 161.253906 255.535156 170.746094 255.535156 176.605469 261.394531 C 182.464844 267.253906 182.464844 276.746094 176.605469 282.605469 L 116.605469 342.605469 C 113.675781 345.535156 109.839844 347 106 347 Z M 106 347 " style=" stroke:none;fill-rule:nonzero;fill:rgb(0%,93.333333%,54.117647%);fill-opacity:1;" />
<path d="M 106 452 C 102.160156 452 98.324219 450.535156 95.394531 447.605469 L 65.394531 417.605469 C 59.535156 411.746094 59.535156 402.253906 65.394531 396.394531 C 71.253906 390.535156 80.746094 390.535156 86.605469 396.394531 L 106 415.789062 L 155.394531 366.394531 C 161.253906 360.535156 170.746094 360.535156 176.605469 366.394531 C 182.464844 372.253906 182.464844 381.746094 176.605469 387.605469 L 116.605469 447.605469 C 113.675781 450.535156 109.839844 452 106 452 Z M 106 452 " style=" stroke:none;fill-rule:nonzero;fill:rgb(0%,93.333333%,54.117647%);fill-opacity:1;" />
<path d="M 317 212 L 226 212 C 217.710938 212 211 205.289062 211 197 C 211 188.710938 217.710938 182 226 182 L 317 182 C 325.289062 182 332 188.710938 332 197 C 332 205.289062 325.289062 212 317 212 Z M 317 212 " style=" stroke:none;fill-rule:nonzero;fill:rgb(72.941176%,72.941176%,75.294118%);fill-opacity:1;" />
<path d="M 317 317 L 226 317 C 217.710938 317 211 310.289062 211 302 C 211 293.710938 217.710938 287 226 287 L 317 287 C 325.289062 287 332 293.710938 332 302 C 332 310.289062 325.289062 317 317 317 Z M 317 317 " style=" stroke:none;fill-rule:nonzero;fill:rgb(72.941176%,72.941176%,75.294118%);fill-opacity:1;" />
<path d="M 317 422 L 226 422 C 217.710938 422 211 415.289062 211 407 C 211 398.710938 217.710938 392 226 392 L 317 392 C 325.289062 392 332 398.710938 332 407 C 332 415.289062 325.289062 422 317 422 Z M 317 422 " style=" stroke:none;fill-rule:nonzero;fill:rgb(72.941176%,72.941176%,75.294118%);fill-opacity:1;" />
<path d="M 286 62 L 286 77 C 286 85.398438 279.402344 92 271 92 L 121 92 C 112.597656 92 106 85.398438 106 77 L 106 62 C 106 45.5 119.5 32 136 32 L 166 32 C 166 15.5 179.5 0 196 0 C 212.5 0 226 15.5 226 32 L 256 32 C 272.5 32 286 45.5 286 62 Z M 286 62 " style=" stroke:none;fill-rule:nonzero;fill:rgb(100%,47.058824%,8.627451%);fill-opacity:1;" />
<path d="M 286 62 L 286 77 C 286 85.398438 279.402344 92 271 92 L 196 92 L 196 0 C 212.5 0 226 15.5 226 32 L 256 32 C 272.5 32 286 45.5 286 62 Z M 286 62 " style=" stroke:none;fill-rule:nonzero;fill:rgb(100%,29.411765%,0%);fill-opacity:1;" />
</g>
</svg>